<svg width="18" height="17" viewBox="0 0 18 17" fill="none" xmlns="http://www.w3.org/2000/svg">
<path d="M1.5 8.653C1.5 6.93625 1.5 6.07825 1.89 5.36725C2.2785 4.6555 2.99025 4.2145 4.413 3.331L5.913 2.40025C7.41675 1.4665 8.169 1 9 1C9.831 1 10.5825 1.4665 12.087 2.40025L13.587 3.331C15.0097 4.2145 15.7215 4.6555 16.1108 5.36725C16.5 6.079 16.5 6.93625 16.5 8.65225V9.79375C16.5 12.7188 16.5 14.182 15.621 15.091C14.742 16 13.3282 16 10.5 16H7.5C4.67175 16 3.25725 16 2.379 15.091C1.50075 14.182 1.5 12.7195 1.5 9.79375V8.653Z" stroke="#B7FA8A" stroke-width="1.125"/>
<path d="M9 10.75V13" stroke="#B7FA8A" stroke-width="1.125" stroke-linecap="round"/>
</svg>
