<svg width="18" height="19" viewBox="0 0 18 19" fill="none" xmlns="http://www.w3.org/2000/svg">
<path fill-rule="evenodd" clip-rule="evenodd" d="M7.45827 2.9375H10.5423C11.9208 2.9375 13.0128 2.9375 13.867 3.05225C14.746 3.17075 15.4578 3.41975 16.0195 3.98075C16.528 4.48925 16.7808 5.12225 16.912 5.89325C17.0073 6.45575 17.0418 7.1225 17.0545 7.9055C17.0638 7.96255 17.0648 8.02066 17.0575 8.078C17.0595 8.2925 17.061 8.516 17.062 8.7485C17.0624 8.89768 17.0035 9.04092 16.8983 9.14669C16.8462 9.19906 16.7843 9.24066 16.7162 9.26911C16.648 9.29756 16.5749 9.3123 16.501 9.3125C16.3518 9.3129 16.2086 9.25402 16.1028 9.14881C15.9971 9.0436 15.9374 8.90068 15.937 8.7515V8.5625H2.06352C2.06202 8.8535 2.06152 9.166 2.06202 9.5C2.06202 10.9303 2.06352 11.9465 2.16702 12.7175C2.26827 13.4713 2.45877 13.9062 2.77602 14.2235C3.09327 14.5408 3.52827 14.7313 4.28277 14.8325C5.05377 14.936 6.06927 14.9375 7.49952 14.9375H8.62452C8.77371 14.9375 8.91678 14.9968 9.02227 15.1023C9.12776 15.2077 9.18702 15.3508 9.18702 15.5C9.18702 15.6492 9.12776 15.7923 9.02227 15.8977C8.91678 16.0032 8.77371 16.0625 8.62452 16.0625H7.45827C6.07977 16.0625 4.98777 16.0625 4.13352 15.9478C3.25452 15.8293 2.54277 15.5802 1.98102 15.0192C1.42002 14.4575 1.17102 13.7458 1.05252 12.8668C0.937773 12.0118 0.937773 10.9205 0.937773 9.542V9.458C0.936773 8.962 0.938523 8.502 0.943023 8.078C0.935459 8.02069 0.936217 7.96259 0.945273 7.9055C0.957273 7.22525 0.985023 6.638 1.05252 6.13325C1.17102 5.25425 1.42002 4.5425 1.98102 3.98075C2.54277 3.41975 3.25452 3.17075 4.13352 3.05225C4.98852 2.9375 6.07977 2.9375 7.45827 2.9375ZM2.08227 7.4375H15.9183C15.9003 6.90125 15.8658 6.458 15.8028 6.0815C15.6955 5.45 15.5125 5.06525 15.2238 4.7765C14.9065 4.45925 14.4715 4.26875 13.717 4.1675C12.9468 4.064 11.9305 4.0625 10.5003 4.0625H7.50027C6.07002 4.0625 5.05452 4.064 4.28277 4.1675C3.52902 4.26875 3.09402 4.45925 2.77677 4.7765C2.45952 5.09375 2.26902 5.52875 2.16777 6.2825C2.12277 6.61625 2.09727 6.9965 2.08227 7.43675M11.6253 10.4367C11.7745 10.4367 11.9175 10.496 12.023 10.6015C12.1285 10.707 12.1878 10.8501 12.1878 10.9992V14.1417L12.7278 13.6017C12.7793 13.5465 12.8414 13.5022 12.9104 13.4714C12.9794 13.4407 13.0539 13.4241 13.1294 13.4228C13.2049 13.4215 13.2799 13.4354 13.35 13.4637C13.42 13.4919 13.4836 13.5341 13.5371 13.5875C13.5905 13.6409 13.6326 13.7045 13.6609 13.7746C13.6892 13.8446 13.703 13.9196 13.7017 13.9951C13.7004 14.0707 13.6839 14.1452 13.6531 14.2142C13.6224 14.2832 13.578 14.3453 13.5228 14.3967L12.0228 15.8967C11.9173 16.0021 11.7743 16.0613 11.6253 16.0613C11.4762 16.0613 11.3332 16.0021 11.2278 15.8967L9.72777 14.3967C9.67251 14.3453 9.62818 14.2832 9.59744 14.2142C9.56669 14.1452 9.55016 14.0707 9.54883 13.9951C9.5475 13.9196 9.56139 13.8446 9.58968 13.7746C9.61797 13.7045 9.66008 13.6409 9.71349 13.5875C9.76691 13.5341 9.83053 13.4919 9.90057 13.4637C9.97062 13.4354 10.0456 13.4215 10.1212 13.4228C10.1967 13.4241 10.2712 13.4407 10.3402 13.4714C10.4092 13.5022 10.4713 13.5465 10.5228 13.6017L11.0628 14.1417V11C11.0628 10.8508 11.122 10.7077 11.2275 10.6023C11.333 10.4968 11.4761 10.4375 11.6253 10.4375M14.6028 10.6025C14.7082 10.4972 14.8512 10.438 15.0003 10.438C15.1493 10.438 15.2923 10.4972 15.3978 10.6025L16.8978 12.1025C16.953 12.154 16.9974 12.2161 17.0281 12.2851C17.0589 12.3541 17.0754 12.4286 17.0767 12.5041C17.078 12.5796 17.0642 12.6547 17.0359 12.7247C17.0076 12.7947 16.9655 12.8584 16.9121 12.9118C16.8586 12.9652 16.795 13.0073 16.725 13.0356C16.6549 13.0639 16.5799 13.0778 16.5044 13.0764C16.4289 13.0751 16.3544 13.0586 16.2854 13.0278C16.2164 12.9971 16.1543 12.9528 16.1028 12.8975L15.5628 12.3575V15.5C15.5628 15.6492 15.5035 15.7923 15.398 15.8977C15.2925 16.0032 15.1495 16.0625 15.0003 16.0625C14.8511 16.0625 14.708 16.0032 14.6025 15.8977C14.497 15.7923 14.4378 15.6492 14.4378 15.5V12.3575L13.8978 12.8975C13.8463 12.9528 13.7842 12.9971 13.7152 13.0278C13.6462 13.0586 13.5717 13.0751 13.4962 13.0764C13.4206 13.0778 13.3456 13.0639 13.2756 13.0356C13.2055 13.0073 13.1419 12.9652 13.0885 12.9118C13.0351 12.8584 12.993 12.7947 12.9647 12.7247C12.9364 12.6547 12.9225 12.5796 12.9238 12.5041C12.9252 12.4286 12.9417 12.3541 12.9724 12.2851C13.0032 12.2161 13.0475 12.154 13.1028 12.1025L14.6028 10.6025ZM3.93777 12.5C3.93777 12.3508 3.99704 12.2077 4.10253 12.1023C4.20801 11.9968 4.35109 11.9375 4.50027 11.9375H7.50027C7.64946 11.9375 7.79253 11.9968 7.89802 12.1023C8.00351 12.2077 8.06277 12.3508 8.06277 12.5C8.06277 12.6492 8.00351 12.7923 7.89802 12.8977C7.79253 13.0032 7.64946 13.0625 7.50027 13.0625H4.50027C4.35109 13.0625 4.20801 13.0032 4.10253 12.8977C3.99704 12.7923 3.93777 12.6492 3.93777 12.5Z" fill="#B7FA8A"/>
</svg>
