<svg width="18" height="19" viewBox="0 0 18 19" fill="none" xmlns="http://www.w3.org/2000/svg">
<path fill-rule="evenodd" clip-rule="evenodd" d="M7.45827 2.9375H10.5423C11.9208 2.9375 13.0128 2.9375 13.867 3.05225C14.746 3.17075 15.4578 3.41975 16.0195 3.98075C16.5805 4.5425 16.8295 5.25425 16.948 6.13325C17.0155 6.638 17.0433 7.22525 17.0545 7.9055C17.0638 7.96255 17.0648 8.02066 17.0575 8.078C17.062 8.502 17.0638 8.962 17.0628 9.458V9.542C17.0628 10.9205 17.0628 12.0125 16.948 12.8668C16.8295 13.7458 16.5805 14.4575 16.0195 15.0192C15.4578 15.5802 14.746 15.8293 13.867 15.9478C13.012 16.0625 11.9208 16.0625 10.5423 16.0625H7.45827C6.07977 16.0625 4.98777 16.0625 4.13352 15.9478C3.25452 15.8293 2.54277 15.5802 1.98102 15.0192C1.42002 14.4575 1.17102 13.7458 1.05252 12.8668C0.937773 12.0118 0.937773 10.9205 0.937773 9.542V9.458C0.936773 8.962 0.938523 8.502 0.943023 8.078C0.935459 8.02069 0.936217 7.96259 0.945273 7.9055C0.957273 7.22525 0.985023 6.638 1.05252 6.13325C1.17102 5.25425 1.42002 4.5425 1.98102 3.98075C2.54277 3.41975 3.25452 3.17075 4.13352 3.05225C4.98852 2.9375 6.07977 2.9375 7.45827 2.9375ZM2.06427 8.5625C2.06327 8.8535 2.06277 9.166 2.06277 9.5C2.06277 10.9303 2.06427 11.9465 2.16777 12.7175C2.26902 13.4713 2.45952 13.9062 2.77677 14.2235C3.09402 14.5408 3.52902 14.7313 4.28352 14.8325C5.05452 14.936 6.07002 14.9375 7.50027 14.9375H10.5003C11.9305 14.9375 12.9468 14.936 13.7178 14.8325C14.4715 14.7313 14.9065 14.5408 15.2238 14.2235C15.541 13.9062 15.7315 13.4712 15.8328 12.7167C15.9363 11.9457 15.9378 10.9303 15.9378 9.5C15.9378 9.166 15.9373 8.8535 15.9363 8.5625H2.06427ZM15.9183 7.4375H2.08227C2.09727 6.99725 2.12277 6.617 2.16777 6.2825C2.26902 5.52875 2.45952 5.09375 2.77677 4.7765C3.09402 4.45925 3.52902 4.26875 4.28352 4.1675C5.05452 4.064 6.07002 4.0625 7.50027 4.0625H10.5003C11.9305 4.0625 12.9468 4.064 13.7178 4.1675C14.4715 4.26875 14.9065 4.45925 15.2238 4.7765C15.541 5.09375 15.7315 5.52875 15.8328 6.28325C15.8778 6.617 15.9033 6.99725 15.9183 7.4375ZM3.93777 12.5C3.93777 12.3508 3.99704 12.2077 4.10253 12.1023C4.20801 11.9968 4.35109 11.9375 4.50027 11.9375H7.50027C7.64946 11.9375 7.79253 11.9968 7.89802 12.1023C8.00351 12.2077 8.06277 12.3508 8.06277 12.5C8.06277 12.6492 8.00351 12.7923 7.89802 12.8977C7.79253 13.0032 7.64946 13.0625 7.50027 13.0625H4.50027C4.35109 13.0625 4.20801 13.0032 4.10253 12.8977C3.99704 12.7923 3.93777 12.6492 3.93777 12.5ZM8.81277 12.5C8.81277 12.3508 8.87204 12.2077 8.97753 12.1023C9.08301 11.9968 9.22609 11.9375 9.37527 11.9375H10.5003C10.6495 11.9375 10.7925 11.9968 10.898 12.1023C11.0035 12.2077 11.0628 12.3508 11.0628 12.5C11.0628 12.6492 11.0035 12.7923 10.898 12.8977C10.7925 13.0032 10.6495 13.0625 10.5003 13.0625H9.37527C9.22609 13.0625 9.08301 13.0032 8.97753 12.8977C8.87204 12.7923 8.81277 12.6492 8.81277 12.5Z" fill="#B7FA8A"/>
</svg>
